<svg xmlns="http://www.w3.org/2000/svg" width="32.377" height="16.188" viewBox="0 0 32.377 16.188">
  <path id="Icon_open-infinity" data-name="Icon open-infinity" d="M8.094,0A7.854,7.854,0,0,0,0,8.094a7.854,7.854,0,0,0,8.094,8.094c3.2,0,5.747-2.266,8.094-4.937,2.347,2.671,4.816,4.937,8.094,4.937a7.854,7.854,0,0,0,8.094-8.094A7.854,7.854,0,0,0,24.283,0C21,0,18.536,2.266,16.188,4.937,13.841,2.266,11.291,0,8.094,0Zm0,4.047c1.7,0,3.561,1.9,5.423,4.047-1.862,2.145-3.723,4.047-5.423,4.047A3.8,3.8,0,0,1,4.047,8.094,3.8,3.8,0,0,1,8.094,4.047Zm16.188,0A3.8,3.8,0,0,1,28.33,8.094a3.8,3.8,0,0,1-4.047,4.047c-1.74,0-3.6-1.9-5.423-4.047C20.721,5.949,22.542,4.047,24.283,4.047Z" fill="#9ea4aa"/>
</svg>
