<svg xmlns="http://www.w3.org/2000/svg" width="28.33" height="26.306" viewBox="0 0 28.33 26.306">
  <path id="Icon_ionic-ios-star" data-name="Icon ionic-ios-star" d="M29.5,12.481H20.2L17.376,4.045a1.024,1.024,0,0,0-1.922,0l-2.827,8.436H3.262A1.015,1.015,0,0,0,2.25,13.493a.744.744,0,0,0,.019.171.972.972,0,0,0,.424.715l7.645,5.388L7.4,28.3a1.015,1.015,0,0,0,.348,1.138.979.979,0,0,0,.569.247,1.24,1.24,0,0,0,.632-.228l7.462-5.318,7.462,5.318a1.185,1.185,0,0,0,.632.228.908.908,0,0,0,.563-.247A1,1,0,0,0,25.42,28.3l-2.934-8.531,7.582-5.438.183-.158a1.061,1.061,0,0,0,.329-.677A1.071,1.071,0,0,0,29.5,12.481Z" transform="translate(-2.25 -3.375)" fill="#9ea4aa"/>
</svg>
