<svg id="Icon_ionic-ios-videocam" data-name="Icon ionic-ios-videocam" xmlns="http://www.w3.org/2000/svg" width="28.33" height="16.188" viewBox="0 0 28.33 16.188">
  <path id="Tracciato_828" data-name="Tracciato 828" d="M30.977,10.8a1.08,1.08,0,0,0-.588.171l-5.47,3.453a.541.541,0,0,0-.253.455v4.806a.541.541,0,0,0,.253.455l5.47,3.453a1.137,1.137,0,0,0,.588.171h1.315a.538.538,0,0,0,.544-.538V11.338a.542.542,0,0,0-.544-.538Z" transform="translate(-4.506 -9.181)" fill="#9ea4aa"/>
  <path id="Tracciato_829" data-name="Tracciato 829" d="M17.521,25.188H5.507a3.267,3.267,0,0,1-3.257-3.25V12.25A3.262,3.262,0,0,1,5.5,9H17.515a3.262,3.262,0,0,1,3.25,3.25v9.681A3.253,3.253,0,0,1,17.521,25.188Z" transform="translate(-2.25 -9)" fill="#9ea4aa"/>
</svg>
