<svg xmlns="http://www.w3.org/2000/svg" width="24.53" height="19.93" viewBox="0 0 24.53 19.93">
  <path id="Icon_awesome-list-ul" data-name="Icon awesome-list-ul" d="M2.3,3.375a2.3,2.3,0,1,0,2.3,2.3A2.3,2.3,0,0,0,2.3,3.375Zm0,7.666a2.3,2.3,0,1,0,2.3,2.3A2.3,2.3,0,0,0,2.3,11.041Zm0,7.666a2.3,2.3,0,1,0,2.3,2.3,2.3,2.3,0,0,0-2.3-2.3Zm21.464.767H8.432a.767.767,0,0,0-.767.767v1.533a.767.767,0,0,0,.767.767H23.763a.767.767,0,0,0,.767-.767V20.239A.767.767,0,0,0,23.763,19.473Zm0-15.331H8.432a.767.767,0,0,0-.767.767V6.441a.767.767,0,0,0,.767.767H23.763a.767.767,0,0,0,.767-.767V4.908A.767.767,0,0,0,23.763,4.142Zm0,7.666H8.432a.767.767,0,0,0-.767.767v1.533a.767.767,0,0,0,.767.767H23.763a.767.767,0,0,0,.767-.767V12.574A.767.767,0,0,0,23.763,11.807Z" transform="translate(0 -3.375)" fill="#9ea4aa"/>
</svg>
