<svg xmlns="http://www.w3.org/2000/svg" width="20" height="17.778" viewBox="0 0 20 17.778">
  <path id="Icon_awesome-house-damage" data-name="Icon awesome-house-damage" d="M10,3.992,2.412,10.684a1.607,1.607,0,0,1-.19.116v6.422a.555.555,0,0,0,.556.556H17.222a.555.555,0,0,0,.556-.556V10.8a1.62,1.62,0,0,1-.183-.111ZM19.816,8.2,17.778,6.4V1.667a.555.555,0,0,0-.556-.556H15a.555.555,0,0,0-.556.556V3.461L10.929.358a1.384,1.384,0,0,0-1.856,0L.184,8.2a.556.556,0,0,0-.042.785l.743.827a.556.556,0,0,0,.785.042L9.633,2.834a.556.556,0,0,1,.735,0L18.33,9.858a.556.556,0,0,0,.785-.042l.743-.827A.555.555,0,0,0,19.816,8.2Z" transform="translate(0)" fill="#9ea4aa"/>
</svg>
