<svg id="Icon_ionic-ios-videocam" data-name="Icon ionic-ios-videocam" xmlns="http://www.w3.org/2000/svg" width="19.668" height="11.239" viewBox="0 0 19.668 11.239">
  <path id="Tracciato_794" data-name="Tracciato 794" d="M29.047,10.8a.75.75,0,0,0-.408.119l-3.8,2.4a.376.376,0,0,0-.176.316v3.336a.376.376,0,0,0,.176.316l3.8,2.4a.789.789,0,0,0,.408.119h.913a.374.374,0,0,0,.378-.373V11.173a.377.377,0,0,0-.378-.373Z" transform="translate(-10.67 -9.676)" fill="#9ea4aa"/>
  <path id="Tracciato_795" data-name="Tracciato 795" d="M12.852,20.239H4.511A2.268,2.268,0,0,1,2.25,17.982V11.257A2.264,2.264,0,0,1,4.507,9h8.341A2.264,2.264,0,0,1,15.1,11.257v6.721A2.259,2.259,0,0,1,12.852,20.239Z" transform="translate(-2.25 -9)" fill="#9ea4aa"/>
</svg>
